<svg fill="none" height="46" viewBox="0 0 51 46" width="51" xmlns="http://www.w3.org/2000/svg"><rect fill="#697af4" height="46" rx="10" width="51"/><g stroke="#d8dcfa" stroke-linecap="round" stroke-linejoin="round" stroke-width="2"><path d="m32.8333 15.6667h-13.3333c-1.3807 0-2.5 1.1193-2.5 2.5v11.6667c0 1.3807 1.1193 2.5 2.5 2.5h13.3333c1.3807 0 2.5-1.1193 2.5-2.5v-11.6667c0-1.3807-1.1193-2.5-2.5-2.5z"/><path d="m17 20.6667h18.3333"/><path d="m26.1667 17.3333v-3.3333"/><path d="m21.1667 17.3333v-3.3333"/><path d="m31.1667 17.3333v-3.3333"/><path d="m20.3333 24.8333h1.6667"/><path d="m25.3333 24.8333h1.6667"/><path d="m30.3333 24.8333h1.6667"/><path d="m20.3333 28.1667h1.6667"/><path d="m25.3333 28.1667h1.6667"/><path d="m30.3333 28.1667h1.6667"/></g></svg>