<svg width="51" height="46" viewBox="0 0 51 46" fill="none" xmlns="http://www.w3.org/2000/svg">
<rect width="51" height="46" rx="10" fill="#343B96"/>
<g clip-path="url(#clip0_519_127)">
<path d="M26.625 21.125V16.125C26.625 15.75 26.375 15.5 26 15.5H25.375C24.6875 15.5 24.125 14.9375 24.125 14.25" stroke="#D8DCFA" stroke-width="2" stroke-miterlimit="10" stroke-linecap="round" stroke-linejoin="round"/>
<path d="M17.875 21.125C17.875 23.5625 19.8125 25.5 22.25 25.5C24.6875 25.5 26.625 23.5625 26.625 21.125" stroke="#D8DCFA" stroke-width="2" stroke-miterlimit="10" stroke-linecap="round" stroke-linejoin="round"/>
<path d="M20.375 14.25C20.375 14.9375 19.8125 15.5 19.125 15.5H18.5C18.125 15.5 17.875 15.75 17.875 16.125V21.125" stroke="#D8DCFA" stroke-width="2" stroke-miterlimit="10" stroke-linecap="round" stroke-linejoin="round"/>
<path d="M31.625 21.125C33.0057 21.125 34.125 20.0057 34.125 18.625C34.125 17.2443 33.0057 16.125 31.625 16.125C30.2443 16.125 29.125 17.2443 29.125 18.625C29.125 20.0057 30.2443 21.125 31.625 21.125Z" stroke="#D8DCFA" stroke-width="2" stroke-miterlimit="10" stroke-linecap="round" stroke-linejoin="round"/>
<path d="M22.25 25.5V26.4375C22.25 29 24.375 31.125 26.9375 31.125C29.5 31.125 31.625 29 31.625 26.4375V21.125" stroke="#D8DCFA" stroke-width="2" stroke-miterlimit="10" stroke-linecap="round" stroke-linejoin="round"/>
</g>
<defs>
<clipPath id="clip0_519_127">
<rect width="20" height="20" fill="white" transform="translate(16 13)"/>
</clipPath>
</defs>
</svg>
