<svg width="51" height="46" viewBox="0 0 51 46" fill="none" xmlns="http://www.w3.org/2000/svg">
<rect width="51" height="46" rx="10" fill='#343B96'/>
<path d="M36 15H16C14.896 15 14 15.896 14 17V29C14 30.104 14.896 31 16 31H36C37.104 31 38 30.104 38 29V17C38 15.896 37.104 15 36 15ZM36 28.5C36 28.776 35.776 29 35.5 29H16.5C16.224 29 16 28.776 16 28.5V22H36V28.5ZM36 19H16V17.5C16 17.224 16.224 17 16.5 17H35.5C35.776 17 36 17.224 36 17.5V19ZM27 25H18V24H27V25ZM24 27H18V26H24V27ZM34 25H31V24H34V25Z" fill='white'/>
</svg>
